PathFileType	4	(X/Y/Z)	c:/Users/goper/Files/vsCode/490R/osim_files/A03/A03_Slow_02.trc
DataRate	CameraRate	NumFrames	NumMarkers	Units                	OrigDataRate	OrigDataStartFrame	OrigNumFrames
250.00	250.00	5	36	mm	250.0	2230	2972
                Frame#	Time	LPSIS			LASIS			LTH1			LTH2			LTH3			LTH4			LLFE			LMFE			LSH1			LSH2			LSH3			LSH4			LLMAL			LMMAL			LCAL			LMTP5			LTOE			LMTP1			RPSIS			RASIS			RTH1			RTH2			RTH3			RTH4			RLFE			RMFE			RSH1			RSH2			RSH3			RSH4			RLMAL			RMMAL			RCAL			RMTP1			RTOE			RMTP5		
		X1	Y1	Z1	X2	Y2	Z2	X3	Y3	Z3	X4	Y4	Z4	X5	Y5	Z5	X6	Y6	Z6	X7	Y7	Z7	X8	Y8	Z8	X9	Y9	Z9	X10	Y10	Z10	X11	Y11	Z11	X12	Y12	Z12	X13	Y13	Z13	X14	Y14	Z14	X15	Y15	Z15	X16	Y16	Z16	X17	Y17	Z17	X18	Y18	Z18	X19	Y19	Z19	X20	Y20	Z20	X21	Y21	Z21	X22	Y22	Z22	X23	Y23	Z23	X24	Y24	Z24	X25	Y25	Z25	X26	Y26	Z26	X27	Y27	Z27	X28	Y28	Z28	X29	Y29	Z29	X30	Y30	Z30	X31	Y31	Z31	X32	Y32	Z32	X33	Y33	Z33	X34	Y34	Z34	X35	Y35	Z35	X36	Y36	Z36

2230	8.91600	-2194.32764	1049.24988	249.50833	-2441.37109	971.82349	362.95413	-2518.76270	634.56769	403.22812	-2544.20239	600.45862	396.15497	-2567.14526	664.51294	378.41739	-2583.60767	624.59644	372.93436	-2542.03809	556.26459	385.93134	-2564.83594	550.98602	232.10608	-2549.05200	461.28186	390.86194	-2574.47021	420.62158	392.58014	-2604.51318	486.65677	385.33789	-2620.77295	441.99225	382.50735	-2738.94189	136.21410	379.62988	-2747.85669	139.99155	280.71280	-2686.64795	84.90273	329.95560	-2897.63599	162.85638	390.33429	-2908.12500	198.13962	319.09872	-2893.61182	161.64955	275.97650	-2193.33960	1064.15967	168.03665	-2427.09741	965.40485	62.59605	-2282.62061	605.46417	33.93122	-2278.81396	561.59393	42.00786	-2343.76880	595.95312	36.67107	-2333.89941	553.14807	44.94124	-2297.62769	524.55969	57.92115	-2343.83765	524.66675	174.90291	-2226.08252	472.91245	63.12257	-2211.39600	433.72766	53.16277	-2285.20972	447.01932	55.17907	-2260.73828	407.50433	47.68951	-2130.88354	127.61061	108.63879	0.00000	0.00000	0.00000	-2074.92725	90.48863	169.77049	-2286.87012	53.84584	202.97360	-2310.18286	76.23034	155.38232	-2278.45044	44.44641	86.58589
2231	8.92000	-2199.22510	1048.47058	250.22575	-2445.59473	970.93329	363.06171	-2522.60986	633.78223	402.98300	-2547.73438	599.27448	395.33527	-2570.67505	663.68475	377.68658	-2587.35693	623.70245	372.57901	-2545.50903	555.29608	385.78058	-2568.55688	550.00885	231.97481	-2552.43359	460.31476	390.74890	-2577.77759	419.66306	392.48212	-2608.48462	485.89450	385.49072	-2624.15747	441.02496	382.45792	-2742.14136	135.10570	379.83615	-2751.43506	139.30090	280.47754	-2690.26318	83.77470	330.02493	-2900.90479	161.33771	391.43903	-2911.95654	197.10818	319.71503	-2897.87012	160.48851	276.52682	-2197.42212	1063.71082	168.58052	-2432.07593	965.03058	62.25964	-2284.79517	605.15509	34.04986	-2280.88696	561.27960	42.15244	-2345.95044	595.37189	36.64456	-2335.95264	552.59296	44.90662	-2299.55884	524.14691	57.94707	-2345.99170	523.98651	174.85539	-2227.75952	472.83066	63.25486	-2212.97388	433.68182	53.27574	-2286.84009	446.68820	55.19351	-2262.17432	407.28970	47.68818	-2131.13379	127.86317	108.60346	0.00000	0.00000	0.00000	-2074.94897	90.67058	169.62625	-2286.87183	53.76992	202.99419	-2310.22290	76.12496	155.42572	-2278.46460	44.42204	86.58704
2232	8.92400	-2203.38843	1047.91748	250.65881	-2449.87085	970.10529	363.19046	-2526.40479	632.95050	402.73486	-2551.51416	598.38953	395.13983	-2574.50928	662.83118	377.37729	-2591.21338	622.87836	372.33041	-2548.95947	554.35199	385.66016	-2572.36035	549.08032	231.94853	-2555.72900	459.29449	390.60696	-2580.92505	418.58450	392.37866	-2611.82275	484.83829	385.45621	-2627.49121	439.89096	382.50064	-2744.97217	133.83495	380.04324	-2754.47168	138.02205	280.71704	-2693.03320	82.65843	330.08649	-2903.70679	160.20148	391.44202	-2914.62012	195.59752	320.23846	-2900.20093	159.12338	277.01392	-2201.53101	1063.23022	169.05659	-2435.70557	964.23920	62.40800	-2288.68677	604.19830	34.78853	-2282.87598	560.98419	42.23795	-2347.53979	594.59601	36.81830	-2337.94897	552.06183	44.88520	-2301.50122	523.72742	57.95572	-2348.10571	523.29718	174.82533	-2229.59180	472.73926	63.39586	-2214.08716	433.95331	53.21801	-2288.44751	446.37503	55.20269	-2263.54492	407.06372	47.67757	-2131.38232	128.12360	108.54606	0.00000	0.00000	0.00000	-2074.99658	90.88522	169.48019	-2287.17603	53.73830	203.03836	-2310.23657	76.01884	155.44818	-2278.46631	44.34518	86.58656
2233	8.92800	-2206.84961	1047.66296	250.82011	-2454.14331	969.24561	363.25858	-2530.26978	632.15234	402.62250	-2555.35425	597.61493	395.06757	-2578.34814	661.99658	377.13504	-2595.00366	621.97729	372.10196	-2552.52856	553.30383	385.68307	-2576.20776	548.10797	231.95972	-2558.84204	458.21570	390.51553	-2584.19849	417.50864	392.32867	-2615.17603	483.66550	385.49329	-2630.65381	438.66467	382.56158	-2747.37524	132.29240	380.10281	-2756.94336	136.29553	281.25537	-2695.54346	81.29625	330.05045	-2906.21240	157.81668	392.50479	-2917.25366	193.61630	320.76883	-2903.68677	157.16599	277.55191	-2202.97314	1063.40088	169.46495	-2439.29004	963.42621	62.56084	-2290.87085	603.89081	34.93993	-2284.92383	560.70227	42.37131	-2349.70581	594.01721	36.84342	-2339.98071	551.53864	44.91972	-2303.46387	523.34680	58.00518	-2350.20581	522.63837	174.75795	-2231.29736	472.68076	63.56289	-2216.01880	433.77325	53.48223	-2290.03027	446.05200	55.23729	-2264.98706	406.87253	47.68753	-2131.66211	128.40031	108.49515	0.00000	0.00000	0.00000	-2075.08447	91.10057	169.30931	-2287.14624	53.64933	203.07089	-2310.29468	75.91502	155.45937	-2278.47388	44.32111	86.58376
2234	8.93200	-2211.59009	1046.89050	251.51918	-2458.50537	968.43231	363.38773	-2534.14746	631.37817	402.52029	-2559.48535	597.19025	395.67453	-2582.45093	661.05310	377.21844	-2598.90698	621.14374	372.00711	-2556.10620	552.32269	385.66852	-2580.07446	547.11981	232.01817	-2562.12012	457.21353	390.46503	-2587.23682	416.33978	392.25702	-2618.37769	482.38083	385.54425	-2633.78418	437.36942	382.60928	-2749.30396	130.50340	380.16678	-2759.47876	134.51860	281.30780	-2697.28076	79.80611	329.90787	-2908.17480	155.80556	392.36218	-2919.67773	191.26810	321.31891	-2905.21094	155.03079	277.94733	-2208.27759	1062.45056	170.34982	-2443.27783	962.40070	62.46715	-2293.10693	603.62207	35.08498	-2286.93457	560.42090	42.50997	-2352.60034	593.72168	36.70222	-2342.05347	551.01544	44.93050	-2305.36450	523.03192	58.05921	-2352.27100	521.99994	174.70879	-2232.67310	472.88406	63.61121	-2217.15601	434.06622	53.41853	-2291.63306	445.77411	55.25706	-2266.38037	406.72699	47.66239	-2131.95947	128.67310	108.45370	0.00000	0.00000	0.00000	-2075.18359	91.36687	169.14375	-2287.15503	53.57049	203.07629	-2310.31763	75.81210	155.46039	-2278.47144	44.24281	86.59288
